<svg width="65" height="98" viewBox="0 0 65 98" fill="none" xmlns="http://www.w3.org/2000/svg">
<path d="M54.215 97.533C52.8275 97.5365 51.4566 97.3068 50.203 96.8608C48.9494 96.4148 47.845 95.7637 46.9708 94.9555L2.11277 53.1594C0.746764 51.913 0 50.3495 0 48.736C0 47.1225 0.746764 45.559 2.11277 44.3126L48.5497 2.51649C50.1261 1.09391 52.3914 0.199306 54.8473 0.0294767C57.3031 -0.140353 59.7483 0.428505 61.6449 1.61091C63.5416 2.79331 64.7343 4.4924 64.9607 6.3344C65.1871 8.1764 64.4287 10.0104 62.8523 11.433L21.3377 48.7709L61.4592 86.1087C62.5949 87.1312 63.3163 88.3763 63.538 89.6967C63.7598 91.0171 63.4727 92.3576 62.7106 93.5594C61.9485 94.7612 60.7434 95.7742 59.2378 96.4784C57.7322 97.1825 55.9892 97.5485 54.215 97.533Z" fill="white"/>
</svg>
