<svg width="35" height="35" viewBox="0 0 35 35" fill="none" xmlns="http://www.w3.org/2000/svg">
<path d="M29.3737 27.3596L24.5514 22.5515C26.1072 20.5693 26.9515 18.1215 26.9483 15.6016C26.9483 13.3575 26.2829 11.1637 25.0361 9.29778C23.7893 7.43183 22.0172 5.9775 19.9439 5.11869C17.8705 4.25989 15.5891 4.03519 13.3881 4.473C11.187 4.91082 9.16523 5.99148 7.57837 7.57834C5.99151 9.1652 4.91085 11.187 4.47303 13.388C4.03522 15.5891 4.25992 17.8705 5.11872 19.9438C5.97753 22.0172 7.43186 23.7893 9.29781 25.0361C11.1638 26.2828 13.3575 26.9483 15.6017 26.9483C18.1216 26.9514 20.5693 26.1072 22.5515 24.5513L27.3597 29.3737C27.4915 29.5066 27.6484 29.6121 27.8212 29.6841C27.9941 29.7561 28.1794 29.7932 28.3667 29.7932C28.5539 29.7932 28.7393 29.7561 28.9121 29.6841C29.085 29.6121 29.2418 29.5066 29.3737 29.3737C29.5066 29.2418 29.6121 29.0849 29.6842 28.9121C29.7562 28.7393 29.7932 28.5539 29.7932 28.3666C29.7932 28.1794 29.7562 27.994 29.6842 27.8212C29.6121 27.6484 29.5066 27.4915 29.3737 27.3596ZM7.09168 15.6016C7.09168 13.9185 7.59078 12.2732 8.52587 10.8737C9.46096 9.47428 10.79 8.38353 12.345 7.73943C13.9 7.09533 15.6111 6.9268 17.2619 7.25516C18.9127 7.58352 20.429 8.39402 21.6192 9.58417C22.8093 10.7743 23.6198 12.2907 23.9482 13.9414C24.2765 15.5922 24.108 17.3033 23.4639 18.8583C22.8198 20.4133 21.729 21.7424 20.3296 22.6775C18.9301 23.6125 17.2848 24.1116 15.6017 24.1116C13.3447 24.1116 11.1801 23.2151 9.5842 21.6191C7.98826 20.0232 7.09168 17.8586 7.09168 15.6016Z" fill="#231F20"/>
</svg>
